<svg width="44" height="33" viewBox="0 0 44 33" fill="none" xmlns="http://www.w3.org/2000/svg">
<path d="M5.995 9.56999L22 16.5137L38.005 9.56999M22 30.36V16.5M38.5 22V11C38.4993 10.5177 38.3296 10.0441 38.0078 9.62659C37.686 9.20907 37.2235 8.86236 36.6667 8.62124L23.8333 3.12124C23.2759 2.87987 22.6436 2.75281 22 2.75281C21.3564 2.75281 20.7241 2.87987 20.1667 3.12124L7.33333 8.62124C6.77648 8.86236 6.31396 9.20907 5.99218 9.62659C5.6704 10.0441 5.50066 10.5177 5.5 11V22C5.50066 22.4822 5.6704 22.9559 5.99218 23.3734C6.31396 23.7909 6.77648 24.1376 7.33333 24.3787L20.1667 29.8787C20.7241 30.1201 21.3564 30.2472 22 30.2472C22.6436 30.2472 23.2759 30.1201 23.8333 29.8787L36.6667 24.3787C37.2235 24.1376 37.686 23.7909 38.0078 23.3734C38.3296 22.9559 38.4993 22.4822 38.5 22Z" stroke="#1E1E1E" stroke-width="4" stroke-linecap="round" stroke-linejoin="round"/>
</svg>
